<svg id="visual" viewBox="0 0 1243 772" width="1243" height="772" xmlns="http://www.w3.org/2000/svg" xmlns:xlink="http://www.w3.org/1999/xlink" version="1.1"><rect x="0" y="0" width="1243" height="772" fill="#f9f9f9"></rect><defs><linearGradient id="grad1_0" x1="37.9%" y1="0%" x2="100%" y2="100%"><stop offset="17.797927461139896%" stop-color="#4d1899" stop-opacity="1"></stop><stop offset="82.20207253886011%" stop-color="#4d1899" stop-opacity="1"></stop></linearGradient></defs><defs><linearGradient id="grad1_1" x1="37.9%" y1="0%" x2="100%" y2="100%"><stop offset="17.797927461139896%" stop-color="#4d1899" stop-opacity="1"></stop><stop offset="82.20207253886011%" stop-color="#f9f9f9" stop-opacity="1"></stop></linearGradient></defs><defs><linearGradient id="grad2_0" x1="0%" y1="0%" x2="62.1%" y2="100%"><stop offset="17.797927461139896%" stop-color="#4d1899" stop-opacity="1"></stop><stop offset="82.20207253886011%" stop-color="#4d1899" stop-opacity="1"></stop></linearGradient></defs><defs><linearGradient id="grad2_1" x1="0%" y1="0%" x2="62.1%" y2="100%"><stop offset="17.797927461139896%" stop-color="#f9f9f9" stop-opacity="1"></stop><stop offset="82.20207253886011%" stop-color="#4d1899" stop-opacity="1"></stop></linearGradient></defs><g transform="translate(1243, 0)"><path d="M0 219.5C-27.9 212 -55.7 204.4 -79.6 192.2C-103.5 179.9 -123.3 162.9 -145 145C-166.6 127.1 -190.1 108.3 -202.8 84C-215.5 59.7 -217.5 29.8 -219.5 0L0 0Z" fill="#a887ca"></path><path d="M0 109.7C-13.9 106 -27.9 102.2 -39.8 96.1C-51.7 89.9 -61.7 81.4 -72.5 72.5C-83.3 63.5 -95 54.1 -101.4 42C-107.7 29.8 -108.7 14.9 -109.7 0L0 0Z" fill="#4d1899"></path></g><g transform="translate(0, 772)"><path d="M0 -219.5C29.5 -217.3 59 -215.2 84 -202.8C109 -190.4 129.6 -167.7 145 -145C160.3 -122.3 170.5 -99.5 182 -75.4C193.6 -51.2 206.5 -25.6 219.5 0L0 0Z" fill="#a887ca"></path><path d="M0 -109.7C14.7 -108.7 29.5 -107.6 42 -101.4C54.5 -95.2 64.8 -83.8 72.5 -72.5C80.2 -61.1 85.2 -49.8 91 -37.7C96.8 -25.6 103.3 -12.8 109.7 0L0 0Z" fill="#4d1899"></path></g></svg>