<svg id="visual" viewBox="0 0 2000 2000" width="2000" height="2000" xmlns="http://www.w3.org/2000/svg" xmlns:xlink="http://www.w3.org/1999/xlink" version="1.1"><rect x="0" y="0" width="2000" height="2000" fill="#FFFFFF"></rect><defs><linearGradient id="grad1_0" x1="0%" y1="0%" x2="100%" y2="100%"><stop offset="30%" stop-color="#4d1899" stop-opacity="1"></stop><stop offset="70%" stop-color="#4d1899" stop-opacity="1"></stop></linearGradient></defs><defs><linearGradient id="grad1_1" x1="0%" y1="0%" x2="100%" y2="100%"><stop offset="30%" stop-color="#4d1899" stop-opacity="1"></stop><stop offset="70%" stop-color="#ffffff" stop-opacity="1"></stop></linearGradient></defs><defs><linearGradient id="grad2_0" x1="0%" y1="0%" x2="100%" y2="100%"><stop offset="30%" stop-color="#4d1899" stop-opacity="1"></stop><stop offset="70%" stop-color="#4d1899" stop-opacity="1"></stop></linearGradient></defs><defs><linearGradient id="grad2_1" x1="0%" y1="0%" x2="100%" y2="100%"><stop offset="30%" stop-color="#ffffff" stop-opacity="1"></stop><stop offset="70%" stop-color="#4d1899" stop-opacity="1"></stop></linearGradient></defs><g transform="translate(2000, 0)"><path d="M0 424.3C-59.1 421.5 -118.2 418.7 -162.4 392C-206.5 365.2 -235.6 314.5 -274.4 274.4C-313.1 234.2 -361.4 204.7 -388 160.7C-414.6 116.8 -419.4 58.4 -424.3 0L0 0Z" fill="#ab8acd"></path><path d="M0 212.1C-29.6 210.7 -59.1 209.4 -81.2 196C-103.2 182.6 -117.8 157.2 -137.2 137.2C-156.5 117.1 -180.7 102.3 -194 80.4C-207.3 58.4 -209.7 29.2 -212.1 0L0 0Z" fill="#4d1899"></path></g><g transform="translate(0, 2000)"><path d="M0 -424.3C50.4 -406.2 100.8 -388.1 153.5 -370.5C206.1 -352.8 260.9 -335.5 300 -300C339.1 -264.5 362.5 -210.7 380.6 -157.7C398.7 -104.6 411.5 -52.3 424.3 0L0 0Z" fill="#ab8acd"></path><path d="M0 -212.1C25.2 -203.1 50.4 -194.1 76.7 -185.2C103 -176.4 130.4 -167.8 150 -150C169.6 -132.2 181.3 -105.4 190.3 -78.8C199.4 -52.3 205.7 -26.2 212.1 0L0 0Z" fill="#4d1899"></path></g></svg>