<svg id="visual" viewBox="0 0 1243 772" width="1243" height="772" xmlns="http://www.w3.org/2000/svg" xmlns:xlink="http://www.w3.org/1999/xlink" version="1.1"><rect x="0" y="0" width="1243" height="772" fill="#f9f9f9"></rect><defs><linearGradient id="grad1_0" x1="37.9%" y1="100%" x2="100%" y2="0%"><stop offset="17.797927461139896%" stop-color="#4d1899" stop-opacity="1"></stop><stop offset="82.20207253886011%" stop-color="#4d1899" stop-opacity="1"></stop></linearGradient></defs><defs><linearGradient id="grad1_1" x1="37.9%" y1="100%" x2="100%" y2="0%"><stop offset="17.797927461139896%" stop-color="#4d1899" stop-opacity="1"></stop><stop offset="82.20207253886011%" stop-color="#f9f9f9" stop-opacity="1"></stop></linearGradient></defs><defs><linearGradient id="grad2_0" x1="0%" y1="100%" x2="62.1%" y2="0%"><stop offset="17.797927461139896%" stop-color="#4d1899" stop-opacity="1"></stop><stop offset="82.20207253886011%" stop-color="#4d1899" stop-opacity="1"></stop></linearGradient></defs><defs><linearGradient id="grad2_1" x1="0%" y1="100%" x2="62.1%" y2="0%"><stop offset="17.797927461139896%" stop-color="#f9f9f9" stop-opacity="1"></stop><stop offset="82.20207253886011%" stop-color="#4d1899" stop-opacity="1"></stop></linearGradient></defs><g transform="translate(1243, 772)"><path d="M-219.5 0C-212 -27.9 -204.4 -55.7 -192.2 -79.6C-179.9 -103.5 -162.9 -123.3 -145 -145C-127.1 -166.6 -108.3 -190.1 -84 -202.8C-59.7 -215.5 -29.8 -217.5 0 -219.5L0 0Z" fill="#a887ca"></path><path d="M-109.7 0C-106 -13.9 -102.2 -27.9 -96.1 -39.8C-89.9 -51.7 -81.4 -61.7 -72.5 -72.5C-63.5 -83.3 -54.1 -95 -42 -101.4C-29.8 -107.7 -14.9 -108.7 0 -109.7L0 0Z" fill="#4d1899"></path></g><g transform="translate(0, 0)"><path d="M219.5 0C217.3 29.5 215.2 59 202.8 84C190.4 109 167.7 129.6 145 145C122.3 160.3 99.5 170.5 75.4 182C51.2 193.6 25.6 206.5 0 219.5L0 0Z" fill="#a887ca"></path><path d="M109.7 0C108.7 14.7 107.6 29.5 101.4 42C95.2 54.5 83.8 64.8 72.5 72.5C61.1 80.2 49.8 85.2 37.7 91C25.6 96.8 12.8 103.3 0 109.7L0 0Z" fill="#4d1899"></path></g></svg>