<svg id="visual" viewBox="0 0 900 675" width="900" height="675" xmlns="http://www.w3.org/2000/svg" xmlns:xlink="http://www.w3.org/1999/xlink" version="1.1"><rect x="0" y="0" width="900" height="675" fill="#FFFFFF"></rect><g transform="translate(453.5755209216517 316.77520979030754)"><path d="M113.5 -126.3C164.1 -92.9 233.7 -73.2 253.5 -33.9C273.2 5.3 243.1 64.2 199.8 92.9C156.5 121.6 99.9 120.3 45.6 151.5C-8.8 182.7 -60.8 246.4 -116.7 254.7C-172.7 263 -232.5 215.9 -255.4 156.8C-278.2 97.8 -264.2 26.8 -236.7 -26.6C-209.2 -80 -168.2 -115.8 -126.5 -150.8C-84.8 -185.8 -42.4 -219.9 -5.5 -213.4C31.5 -206.9 63 -159.7 113.5 -126.3" fill="#4D1899"></path></g></svg>