<svg id="visual" viewBox="0 0 1500 1000" width="1500" height="1000" xmlns="http://www.w3.org/2000/svg" xmlns:xlink="http://www.w3.org/1999/xlink" version="1.1"><rect x="0" y="0" width="1500" height="1000" fill="#ffffff"></rect><defs><linearGradient id="grad1_0" x1="33.3%" y1="0%" x2="100%" y2="100%"><stop offset="20%" stop-color="#ffffff" stop-opacity="1"></stop><stop offset="80%" stop-color="#ffffff" stop-opacity="1"></stop></linearGradient></defs><defs><linearGradient id="grad2_0" x1="0%" y1="0%" x2="66.7%" y2="100%"><stop offset="20%" stop-color="#ffffff" stop-opacity="1"></stop><stop offset="80%" stop-color="#ffffff" stop-opacity="1"></stop></linearGradient></defs><g transform="translate(1500, 0)"><path d="M0 540.8C-63.6 520.7 -127.2 500.6 -198.6 479.5C-270 458.3 -349.3 436.1 -382.4 382.4C-415.6 328.7 -402.6 243.5 -421.3 174.5C-440 105.5 -490.4 52.8 -540.8 0L0 0Z" fill="#dcdcdc"></path></g><g transform="translate(0, 1000)"><path d="M0 -540.8C66.5 -520.5 132.9 -500.2 196.7 -474.9C260.5 -449.5 321.6 -419.2 374.8 -374.8C428 -330.3 473.3 -271.8 499.7 -207C526 -142.2 533.4 -71.1 540.8 0L0 0Z" fill="#dcdcdc"></path></g></svg>