<svg id="visual" viewBox="0 0 960 540" width="960" height="540" xmlns="http://www.w3.org/2000/svg" xmlns:xlink="http://www.w3.org/1999/xlink" version="1.1"><path d="M0 174L17.8 170.3C35.7 166.7 71.3 159.3 106.8 154.8C142.3 150.3 177.7 148.7 213.2 146C248.7 143.3 284.3 139.7 320 140.5C355.7 141.3 391.3 146.7 426.8 151.2C462.3 155.7 497.7 159.3 533.2 158.5C568.7 157.7 604.3 152.3 640 156.8C675.7 161.3 711.3 175.7 746.8 179.2C782.3 182.7 817.7 175.3 853.2 163.7C888.7 152 924.3 136 942.2 128L960 120L960 0L942.2 0C924.3 0 888.7 0 853.2 0C817.7 0 782.3 0 746.8 0C711.3 0 675.7 0 640 0C604.3 0 568.7 0 533.2 0C497.7 0 462.3 0 426.8 0C391.3 0 355.7 0 320 0C284.3 0 248.7 0 213.2 0C177.7 0 142.3 0 106.8 0C71.3 0 35.7 0 17.8 0L0 0Z" fill="#7649b6"></path><path d="M0 222L17.8 217.5C35.7 213 71.3 204 106.8 203.2C142.3 202.3 177.7 209.7 213.2 210.7C248.7 211.7 284.3 206.3 320 203.7C355.7 201 391.3 201 426.8 203.7C462.3 206.3 497.7 211.7 533.2 214.3C568.7 217 604.3 217 640 223.3C675.7 229.7 711.3 242.3 746.8 242.3C782.3 242.3 817.7 229.7 853.2 215.2C888.7 200.7 924.3 184.3 942.2 176.2L960 168L960 118L942.2 126C924.3 134 888.7 150 853.2 161.7C817.7 173.3 782.3 180.7 746.8 177.2C711.3 173.7 675.7 159.3 640 154.8C604.3 150.3 568.7 155.7 533.2 156.5C497.7 157.3 462.3 153.7 426.8 149.2C391.3 144.7 355.7 139.3 320 138.5C284.3 137.7 248.7 141.3 213.2 144C177.7 146.7 142.3 148.3 106.8 152.8C71.3 157.3 35.7 164.7 17.8 168.3L0 172Z" fill="#6232a8"></path><path d="M0 330L17.8 324.7C35.7 319.3 71.3 308.7 106.8 301.5C142.3 294.3 177.7 290.7 213.2 287C248.7 283.3 284.3 279.7 320 279.7C355.7 279.7 391.3 283.3 426.8 290.7C462.3 298 497.7 309 533.2 310C568.7 311 604.3 302 640 303.7C675.7 305.3 711.3 317.7 746.8 326.7C782.3 335.7 817.7 341.3 853.2 335.2C888.7 329 924.3 311 942.2 302L960 293L960 166L942.2 174.2C924.3 182.3 888.7 198.7 853.2 213.2C817.7 227.7 782.3 240.3 746.8 240.3C711.3 240.3 675.7 227.7 640 221.3C604.3 215 568.7 215 533.2 212.3C497.7 209.7 462.3 204.3 426.8 201.7C391.3 199 355.7 199 320 201.7C284.3 204.3 248.7 209.7 213.2 208.7C177.7 207.7 142.3 200.3 106.8 201.2C71.3 202 35.7 211 17.8 215.5L0 220Z" fill="#4d1899"></path><path d="M0 465L17.8 466.8C35.7 468.7 71.3 472.3 106.8 473.3C142.3 474.3 177.7 472.7 213.2 471.8C248.7 471 284.3 471 320 466.5C355.7 462 391.3 453 426.8 449.3C462.3 445.7 497.7 447.3 533.2 451.8C568.7 456.3 604.3 463.7 640 468.2C675.7 472.7 711.3 474.3 746.8 476.2C782.3 478 817.7 480 853.2 481.8C888.7 483.7 924.3 485.3 942.2 486.2L960 487L960 291L942.2 300C924.3 309 888.7 327 853.2 333.2C817.7 339.3 782.3 333.7 746.8 324.7C711.3 315.7 675.7 303.3 640 301.7C604.3 300 568.7 309 533.2 308C497.7 307 462.3 296 426.8 288.7C391.3 281.3 355.7 277.7 320 277.7C284.3 277.7 248.7 281.3 213.2 285C177.7 288.7 142.3 292.3 106.8 299.5C71.3 306.7 35.7 317.3 17.8 322.7L0 328Z" fill="#401885"></path><path d="M0 541L17.8 541C35.7 541 71.3 541 106.8 541C142.3 541 177.7 541 213.2 541C248.7 541 284.3 541 320 541C355.7 541 391.3 541 426.8 541C462.3 541 497.7 541 533.2 541C568.7 541 604.3 541 640 541C675.7 541 711.3 541 746.8 541C782.3 541 817.7 541 853.2 541C888.7 541 924.3 541 942.2 541L960 541L960 485L942.2 484.2C924.3 483.3 888.7 481.7 853.2 479.8C817.7 478 782.3 476 746.8 474.2C711.3 472.3 675.7 470.7 640 466.2C604.3 461.7 568.7 454.3 533.2 449.8C497.7 445.3 462.3 443.7 426.8 447.3C391.3 451 355.7 460 320 464.5C284.3 469 248.7 469 213.2 469.8C177.7 470.7 142.3 472.3 106.8 471.3C71.3 470.3 35.7 466.7 17.8 464.8L0 463Z" fill="#341771"></path></svg>