<svg id="visual" viewBox="0 0 900 600" width="900" height="600" xmlns="http://www.w3.org/2000/svg" xmlns:xlink="http://www.w3.org/1999/xlink" version="1.1"><path d="M0 157L13.7 156C27.3 155 54.7 153 82 165C109.3 177 136.7 203 163.8 203C191 203 218 177 245.2 160C272.3 143 299.7 135 327 148C354.3 161 381.7 195 409 213C436.3 231 463.7 233 491 216C518.3 199 545.7 163 573 168C600.3 173 627.7 219 654.8 218C682 217 709 169 736.2 145C763.3 121 790.7 121 818 122C845.3 123 872.7 125 886.3 126L900 127L900 0L886.3 0C872.7 0 845.3 0 818 0C790.7 0 763.3 0 736.2 0C709 0 682 0 654.8 0C627.7 0 600.3 0 573 0C545.7 0 518.3 0 491 0C463.7 0 436.3 0 409 0C381.7 0 354.3 0 327 0C299.7 0 272.3 0 245.2 0C218 0 191 0 163.8 0C136.7 0 109.3 0 82 0C54.7 0 27.3 0 13.7 0L0 0Z" fill="#341771"></path><path d="M0 211L13.7 212C27.3 213 54.7 215 82 226C109.3 237 136.7 257 163.8 261C191 265 218 253 245.2 235C272.3 217 299.7 193 327 208C354.3 223 381.7 277 409 294C436.3 311 463.7 291 491 269C518.3 247 545.7 223 573 231C600.3 239 627.7 279 654.8 281C682 283 709 247 736.2 229C763.3 211 790.7 211 818 208C845.3 205 872.7 199 886.3 196L900 193L900 125L886.3 124C872.7 123 845.3 121 818 120C790.7 119 763.3 119 736.2 143C709 167 682 215 654.8 216C627.7 217 600.3 171 573 166C545.7 161 518.3 197 491 214C463.7 231 436.3 229 409 211C381.7 193 354.3 159 327 146C299.7 133 272.3 141 245.2 158C218 175 191 201 163.8 201C136.7 201 109.3 175 82 163C54.7 151 27.3 153 13.7 154L0 155Z" fill="#401885"></path><path d="M0 319L13.7 323C27.3 327 54.7 335 82 344C109.3 353 136.7 363 163.8 362C191 361 218 349 245.2 334C272.3 319 299.7 301 327 306C354.3 311 381.7 339 409 345C436.3 351 463.7 335 491 326C518.3 317 545.7 315 573 323C600.3 331 627.7 349 654.8 342C682 335 709 303 736.2 295C763.3 287 790.7 303 818 297C845.3 291 872.7 263 886.3 249L900 235L900 191L886.3 194C872.7 197 845.3 203 818 206C790.7 209 763.3 209 736.2 227C709 245 682 281 654.8 279C627.7 277 600.3 237 573 229C545.7 221 518.3 245 491 267C463.7 289 436.3 309 409 292C381.7 275 354.3 221 327 206C299.7 191 272.3 215 245.2 233C218 251 191 263 163.8 259C136.7 255 109.3 235 82 224C54.7 213 27.3 211 13.7 210L0 209Z" fill="#4d1899"></path><path d="M0 415L13.7 417C27.3 419 54.7 423 82 431C109.3 439 136.7 451 163.8 444C191 437 218 411 245.2 406C272.3 401 299.7 417 327 426C354.3 435 381.7 437 409 448C436.3 459 463.7 479 491 478C518.3 477 545.7 455 573 449C600.3 443 627.7 453 654.8 444C682 435 709 407 736.2 393C763.3 379 790.7 379 818 371C845.3 363 872.7 347 886.3 339L900 331L900 233L886.3 247C872.7 261 845.3 289 818 295C790.7 301 763.3 285 736.2 293C709 301 682 333 654.8 340C627.7 347 600.3 329 573 321C545.7 313 518.3 315 491 324C463.7 333 436.3 349 409 343C381.7 337 354.3 309 327 304C299.7 299 272.3 317 245.2 332C218 347 191 359 163.8 360C136.7 361 109.3 351 82 342C54.7 333 27.3 325 13.7 321L0 317Z" fill="#6232a8"></path><path d="M0 601L13.7 601C27.3 601 54.7 601 82 601C109.3 601 136.7 601 163.8 601C191 601 218 601 245.2 601C272.3 601 299.7 601 327 601C354.3 601 381.7 601 409 601C436.3 601 463.7 601 491 601C518.3 601 545.7 601 573 601C600.3 601 627.7 601 654.8 601C682 601 709 601 736.2 601C763.3 601 790.7 601 818 601C845.3 601 872.7 601 886.3 601L900 601L900 329L886.3 337C872.7 345 845.3 361 818 369C790.7 377 763.3 377 736.2 391C709 405 682 433 654.8 442C627.7 451 600.3 441 573 447C545.7 453 518.3 475 491 476C463.7 477 436.3 457 409 446C381.7 435 354.3 433 327 424C299.7 415 272.3 399 245.2 404C218 409 191 435 163.8 442C136.7 449 109.3 437 82 429C54.7 421 27.3 417 13.7 415L0 413Z" fill="#7649b6"></path></svg>